<svg xmlns="http://www.w3.org/2000/svg" width="24" height="24" viewBox="0 0 24 24" fill="none">
<path d="M20.94 13.045C21.1518 11.2333 20.8081 9.39995 19.9544 7.78798C19.1007 6.176 17.7774 4.86147 16.1598 4.01857C14.5421 3.17566 12.7066 2.84418 10.8963 3.06805C9.08602 3.29191 7.3865 4.06055 6.02293 5.27212C4.65937 6.48369 3.69613 8.08099 3.26086 9.85236C2.82558 11.6237 2.93883 13.4855 3.58558 15.1911C4.23233 16.8967 5.38206 18.3654 6.88241 19.4028C8.38277 20.4402 10.1629 20.9972 11.987 21M3.59998 9H20.4M3.59998 15H13" stroke="#26303E" stroke-width="2" stroke-linecap="round" stroke-linejoin="round"/>
<path d="M11.5 3C9.81532 5.69961 8.92218 8.81787 8.92218 12C8.92218 15.1821 9.81532 18.3004 11.5 21M12.5 3C14.4191 6.07385 15.3053 9.68077 15.029 13.294M16 22L21 17M21 17V21.5M21 17H16.5" stroke="#26303E" stroke-width="2" stroke-linecap="round" stroke-linejoin="round"/>
</svg>